<?xml version="1.0" encoding="utf-8"?>
<svg version="1.1" width="32px" height="32px" xmlns="http://www.w3.org/2000/svg" xmlns:xlink="http://www.w3.org/1999/xlink" x="0px" y="0px" viewBox="0 0 1000 1000" enable-background="new 0 0 1000 1000" xml:space="preserve">
<path d="M832.3,245.3L655.2,422.4v499.7c0,18.6-6.7,34.6-20,47.9c-13.4,13.3-29.3,20-47.9,20c-18.6,0-34.5-6.6-47.9-20c-13.4-13.4-20-29.3-20-47.9V689.2h-38.8v232.9c0,18.6-6.7,34.6-20,47.9c-13.4,13.3-29.3,20-47.9,20c-18.6,0-34.5-6.6-47.9-20c-13.4-13.4-20-29.3-20-47.9V422.4L167.7,245.3c-11.3-11.3-17-25.1-17-41.2c0-16.1,5.7-29.9,17-41.2c11.3-11.3,25.1-17,41.2-17c16.1,0,29.9,5.7,41.2,17l138.3,138.3h223.2l138.3-138.3c11.3-11.3,25.1-17,41.2-17c16.1,0,29.9,5.7,41.2,17c11.3,11.3,17,25.1,17,41.2C849.3,220.2,843.6,234,832.3,245.3L832.3,245.3z M635.8,145.8c0,37.6-13.2,69.6-39.7,96.1c-26.5,26.5-58.5,39.7-96.1,39.7c-37.6,0-69.7-13.3-96.1-39.7c-26.5-26.4-39.7-58.5-39.7-96.1c0-37.6,13.2-69.7,39.7-96.1C430.3,23.3,462.4,10,500,10c37.6,0,69.7,13.2,96.1,39.7C622.6,76.2,635.8,108.2,635.8,145.8z"/>
</svg>